# xmcd
#
# Track frame offsets: 
#        150
#        19620
#        52485
#        69540
#        101535
#        127785
#        144750
#        157155
#        175230
#
# Disc length: 2659 seconds
#
# Revision: 0
# Processed by: cddbd v1.5.2PL0 Copyright (c) Steve Scherf et al.
# Submitted via: ExactAudioCopy v1.0b4
#
DISCID=770a6109
DTITLE=Alabama Lovesnakes - Nasty Weather
DYEAR=2013
DGENRE=Blues Rock
TTITLE0=Early in the Morning (Live)
TTITLE1=Someone Like You (Live)
TTITLE2=Nasty Weather (Live)
TTITLE3=Something for the Pain (Live)
TTITLE4=Wild About You (Live)
TTITLE5=Hey Hey Baby!
TTITLE6=This Lonesome Blues
TTITLE7=Nasty Weather
TTITLE8=St. James Infirmary Blues
EXTD=
EXTT0=
EXTT1=
EXTT2=
EXTT3=
EXTT4=
EXTT5=
EXTT6=
EXTT7=
EXTT8=
PLAYORDER=
